<svg width="25.685" height="25.685" xmlns="http://www.w3.org/2000/svg">
 <g>
  <title>Layer 1</title>
  <g id="svg_33">
   <path id="svg_34" fill="#ffffff" d="m22.08,0.098l-11.11,3.399c-1.346001,0.384 -2.437,1.788 -2.437,3.134v11.557c0,0 0,0.158001 0,0.162001c0,0 -0.805,-0.543001 -2.598,-0.289c-2.633,0.373999 -4.768,2.394999 -4.768,4.514999s2.135,3.419001 4.768,3.045c2.635,-0.372 4.566,-2.330999 4.566,-4.452c0,0 0,-9.066001 0,-10.006001s1.129999,-1.343 1.129999,-1.343l9.823001,-3.078999c0,0 1.087,-0.365001 1.087,0.641s0,8.031 0,8.031s0,0.002 0,0.006c0,0 -1.000999,-0.575999 -2.794001,-0.358c-2.632999,0.319 -4.768,2.298 -4.768,4.417c0,2.121 2.135,3.463001 4.768,3.143c2.635,-0.318998 4.77,-2.296999 4.77,-4.418001v-16.362999c0,-1.346 -1.092001,-2.126 -2.437,-1.742z"/>
  </g>
  <g id="svg_35"/>
  <g id="svg_36"/>
  <g id="svg_37"/>
  <g id="svg_38"/>
  <g id="svg_39"/>
  <g id="svg_40"/>
  <g id="svg_41"/>
  <g id="svg_42"/>
  <g id="svg_43"/>
  <g id="svg_44"/>
  <g id="svg_45"/>
  <g id="svg_46"/>
  <g id="svg_47"/>
  <g id="svg_48"/>
  <g id="svg_49"/>
 </g>
</svg>