<svg width="315.58" height="315.58" xmlns="http://www.w3.org/2000/svg">
 <g>
  <title>Layer 1</title>
  <g id="svg_49">
   <path fill="#ffffff" id="svg_50" d="m310.579987,33.331001h-305.579987c-2.761,0 -5,2.237999 -5,5v238.917992c0,2.761993 2.239,5 5,5h305.579987c2.763,0 5,-2.238007 5,-5v-238.917992c0,-2.762001 -2.237,-5 -5,-5zm-25,209.055l-68.765991,-71.214005c-0.759995,-0.785004 -2.002991,-0.835999 -2.822998,-0.113998l-47.694992,41.979004l-60.962006,-75.061005c-0.395996,-0.490005 -0.974998,-0.770004 -1.629997,-0.755997c-0.631004,0.013 -1.220001,0.315994 -1.597,0.822006l-72.107002,96.75499v-171.465996h255.579987v179.055l0,0z"/>
   <path fill="#ffffff" id="svg_51" d="m210.059006,135.554993c13.537994,0 24.528992,-10.982002 24.528992,-24.530998c0,-13.545006 -10.990997,-24.533005 -24.528992,-24.533005c-13.548996,0 -24.528,10.987999 -24.528,24.533005c0,13.548004 10.979996,24.530998 24.528,24.530998z"/>
  </g>
  <g id="svg_52"/>
  <g id="svg_53"/>
  <g id="svg_54"/>
  <g id="svg_55"/>
  <g id="svg_56"/>
  <g id="svg_57"/>
  <g id="svg_58"/>
  <g id="svg_59"/>
  <g id="svg_60"/>
  <g id="svg_61"/>
  <g id="svg_62"/>
  <g id="svg_63"/>
  <g id="svg_64"/>
  <g id="svg_65"/>
  <g id="svg_66"/>
 </g>
</svg>