<svg width="80.13" height="80.13" xmlns="http://www.w3.org/2000/svg">
 <g>
  <title>Layer 1</title>
  <g id="svg_17">
   <path fill="#ffffff" id="svg_18" d="m48.355,18.922001c3.704998,2.323 6.303001,6.254 6.776001,10.816999c1.510998,0.706001 3.188,1.112001 4.966,1.112001c6.490997,0 11.751999,-5.261002 11.751999,-11.751001c0,-6.490999 -5.261002,-11.751999 -11.751999,-11.751999c-6.429001,0.001999 -11.644001,5.168999 -11.742001,11.574zm-7.699001,24.062c6.491001,0 11.751999,-5.262001 11.751999,-11.752001s-5.262001,-11.750999 -11.751999,-11.750999c-6.490002,0 -11.754,5.262001 -11.754,11.752001s5.264002,11.750999 11.754,11.750999zm4.985001,0.800999h-9.972c-8.296999,0 -15.046999,6.750999 -15.046999,15.048v12.195l0.031,0.191002l0.839998,0.263c7.918001,2.473999 14.797003,3.298996 20.459002,3.298996c11.058998,0 17.468998,-3.153 17.863998,-3.353996l0.785,-0.397003h0.084v-12.196999c0.003002,-8.297001 -6.746998,-15.048 -15.043999,-15.048zm19.443001,-12.132h-9.895c-0.106998,3.959 -1.797001,7.523998 -4.470001,10.088001c7.375,2.193001 12.771,9.031998 12.771,17.110001v3.757999c9.770004,-0.358002 15.400002,-3.126999 15.771004,-3.313l0.784996,-0.397999h0.084v-12.199001c0,-8.296001 -6.75,-15.046001 -15.045998,-15.046001zm-45.049,-0.799999c2.299,0 4.438,-0.671 6.25,-1.813999c0.576,-3.757 2.59,-7.040001 5.467001,-9.276001c0.011999,-0.219999 0.032999,-0.438 0.032999,-0.66c0,-6.491001 -5.261999,-11.752 -11.75,-11.752c-6.492,0 -11.752,5.261001 -11.752,11.752c0,6.487999 5.26,11.75 11.752,11.75zm10.554001,10.888c-2.66,-2.550999 -4.344,-6.097 -4.466999,-10.032c-0.367001,-0.027 -0.730001,-0.056 -1.104,-0.056h-9.971001c-8.297001,-0.000002 -15.047001,6.749998 -15.047001,15.046v12.196999l0.031,0.188l0.84,0.265003c6.352,1.982998 12.021,2.896999 16.945,3.184998v-3.682999c0.002001,-8.078003 5.396,-14.915001 12.773001,-17.110001z"/>
  </g>
  <g id="svg_19"/>
  <g id="svg_20"/>
  <g id="svg_21"/>
  <g id="svg_22"/>
  <g id="svg_23"/>
  <g id="svg_24"/>
  <g id="svg_25"/>
  <g id="svg_26"/>
  <g id="svg_27"/>
  <g id="svg_28"/>
  <g id="svg_29"/>
  <g id="svg_30"/>
  <g id="svg_31"/>
  <g id="svg_32"/>
  <g id="svg_33"/>
 </g>
</svg>